<svg width="25" height="25" viewBox="0 0 25 25" version="1.1" xmlns="http://www.w3.org/2000/svg" xmlns:xlink="http://www.w3.org/1999/xlink">
<title>Union</title>
<desc>Created using Figma</desc>
<g id="Canvas" transform="translate(-1096 845)">
<g id="Union">
<use xlink:href="#path0_fill" transform="translate(1096 -845)" fill="#FFF9EB"/>
<use xlink:href="#path1_fill" transform="translate(1096 -845)" fill="#FFF9EB"/>
<use xlink:href="#path2_fill" transform="translate(1096 -845)" fill="#FFF9EB"/>
</g>
</g>
<defs>
<path id="path0_fill" d="M 21.3306 14.5619C 21.3306 15.682 20.428 16.59 19.3145 16.59C 18.201 16.59 17.2984 15.682 17.2984 14.5619C 17.2984 13.4418 18.201 12.5338 19.3145 12.5338C 20.428 12.5338 21.3306 13.4418 21.3306 14.5619Z"/>
<path id="path1_fill" d="M 16.2903 15.5759C 16.2903 17.0321 15.1169 18.2125 13.6694 18.2125C 12.2218 18.2125 11.0484 17.0321 11.0484 15.5759C 11.0484 14.1198 12.2218 12.9394 13.6694 12.9394C 15.1169 12.9394 16.2903 14.1198 16.2903 15.5759Z"/>
<path id="path2_fill" fill-rule="evenodd" d="M 22.1418 1.61416C 16.2582 -0.538052 8.74183 -0.538052 2.8582 1.61416C 2.27522 1.82741 1.81661 2.28875 1.60462 2.8752C -0.534872 8.79381 -0.534872 16.3548 1.60462 22.2735C 1.81647 22.8595 2.2752 23.3224 2.86091 23.534C 8.73985 25.6586 16.2125 25.3136 22.0449 23.5253C 22.6786 23.331 23.1886 22.8503 23.4152 22.2184C 25.5348 16.3083 25.5283 8.7757 23.3954 2.8752C 23.1834 2.28875 22.7248 1.82741 22.1418 1.61416ZM 3.2716 2.75776C 8.88819 0.703239 16.1118 0.703239 21.7284 2.75776C 21.9751 2.84801 22.1688 3.04289 22.2585 3.29105C 24.2946 8.92346 24.301 16.1627 22.2773 21.8055C 22.1819 22.0715 21.9662 22.2773 21.6923 22.3613C 16.0443 24.093 8.84675 24.4043 3.26991 22.3888C 3.02479 22.3002 2.83131 22.1062 2.74146 21.8576C 0.699081 16.2076 0.699081 8.94104 2.74146 3.29105C 2.83117 3.04289 3.0249 2.84801 3.2716 2.75776Z"/>
</defs>
</svg>
